# xmcd CD database file generated by LOLA_Freedb v0.9beta0
# 
# Track frame offsets:
#      183
#      7238
#      19863
#      36638
#      49690
#      61728
#      70863
#      86575
#      96283
#      108588
#      126128
#      135513
# 
# Disc length: 1910 seconds
# 
# Revision: 0 
# Processed by: cddbd v1.5.1PL0 Copyright (c) Steve Scherf et al.
# Submitted via: LOLA_Freedb v0.9beta0
# 
DISCID=a507740c
DTITLE=Ecke and Co - Country Made in Germany
DYEAR=1990
DGENRE=
TTITLE0=Ecke and Co - Andys Breakdown
TTITLE1=Ecke and Co - Country Made in Germany
TTITLE2=Ecke and Co - Ich wollte doch nur tanken
TTITLE3=Ecke and Co - Nachts in Freienhufen
TTITLE4=Ecke and Co - Warum kann ich mich nicht entscheiden
TTITLE5=Ecke and Co - Wir Countryfans aus Deutschland
TTITLE6=Ecke and Co - Unsere Country Roads
TTITLE7=Ecke and Co - Wir wollen keine Machos
TTITLE8=Ecke and Co - Die Malerin
TTITLE9=Ecke and Co - The Banks of the Ohio
TTITLE10=Ecke and Co - Unser erster Morgen
TTITLE11=Ecke and Co - Allein
EXTD=
EXTT0=
EXTT1=
EXTT2=
EXTT3=
EXTT4=
EXTT5=
EXTT6=
EXTT7=
EXTT8=
EXTT9=
EXTT10=
EXTT11=
PLAYORDER=
